<svg width="36" height="43" viewBox="0 0 36 43" fill="none" xmlns="http://www.w3.org/2000/svg">
<path fill-rule="evenodd" clip-rule="evenodd" d="M0.989502 9.67564C0.989502 4.50506 5.18109 0.313477 10.3517 0.313477H26.1195C31.2901 0.313477 35.4817 4.50506 35.4817 9.67564V33.3274C35.4817 38.498 31.2901 42.6896 26.1195 42.6896H10.3517C5.18109 42.6896 0.989502 38.498 0.989502 33.3274V9.67564ZM10.3517 10.1684C9.53526 10.1684 8.87343 10.8302 8.87343 11.6466C8.87343 12.463 9.53526 13.1249 10.3517 13.1249H26.1195C26.9359 13.1249 27.5978 12.463 27.5978 11.6466C27.5978 10.8302 26.9359 10.1684 26.1195 10.1684H10.3517ZM8.87343 21.5015C8.87343 20.6851 9.53526 20.0233 10.3517 20.0233H26.1195C26.9359 20.0233 27.5978 20.6851 27.5978 21.5015C27.5978 22.3179 26.9359 22.9798 26.1195 22.9798H10.3517C9.53526 22.9798 8.87343 22.3179 8.87343 21.5015ZM10.3517 29.8782C9.53526 29.8782 8.87343 30.54 8.87343 31.3564C8.87343 32.1729 9.53526 32.8347 10.3517 32.8347H18.2356C19.052 32.8347 19.7138 32.1729 19.7138 31.3564C19.7138 30.54 19.052 29.8782 18.2356 29.8782H10.3517Z" fill="#DDB762"/>
</svg>
